<?xml version="1.0" encoding="UTF-8"?><svg id="Layer_1" xmlns="http://www.w3.org/2000/svg" width="28" height="28" viewBox="0 0 28 28"><defs><style>.cls-1{fill:#fff;}.cls-2{fill:#4775ae;}</style></defs><path class="cls-2" d="M25.93,0H2.07C.93,0,0,.9,0,2.02V25.98c0,1.12,.93,2.02,2.07,2.02H25.93c1.14,0,2.07-.91,2.07-2.02V2.02c0-1.11-.93-2.02-2.07-2.02Z"/><path class="cls-1" d="M10.69,23.14c8.22,0,12.71-6.81,12.71-12.71,0-.19,0-.39-.01-.58,.87-.63,1.63-1.42,2.23-2.31-.8,.36-1.66,.6-2.57,.7,.92-.55,1.63-1.43,1.96-2.47-.86,.51-1.82,.88-2.84,1.08-.82-.87-1.98-1.41-3.26-1.41-2.47,0-4.47,2-4.47,4.47,0,.35,.04,.69,.12,1.02-3.71-.19-7-1.96-9.21-4.67-.38,.66-.6,1.43-.6,2.25,0,1.55,.79,2.92,1.99,3.72-.73-.02-1.42-.22-2.02-.56,0,.02,0,.04,0,.06,0,2.16,1.54,3.97,3.58,4.38-.38,.1-.77,.16-1.18,.16-.29,0-.57-.03-.84-.08,.57,1.77,2.22,3.07,4.17,3.1-1.53,1.2-3.45,1.91-5.55,1.91-.36,0-.72-.02-1.07-.06,1.98,1.27,4.32,2.01,6.85,2.01"/></svg>