<?xml version="1.0" encoding="UTF-8"?><svg id="Layer_1" xmlns="http://www.w3.org/2000/svg" width="28" height="28" viewBox="0 0 28 28"><defs><style>.cls-1{fill:#fff;}.cls-2{fill:#4775ae;}</style></defs><path class="cls-2" d="M26.45,0H1.55C.69,0,0,.69,0,1.55V26.45c0,.85,.69,1.55,1.55,1.55H14.96v-10.83h-3.64v-4.24h3.64v-3.12c0-3.62,2.21-5.59,5.43-5.59,1.55,0,2.87,.12,3.26,.17v3.78h-2.22c-1.76,0-2.1,.84-2.1,2.06v2.7h4.2l-.55,4.24h-3.65v10.83h7.12c.85,0,1.55-.69,1.55-1.55V1.55c0-.85-.69-1.55-1.55-1.55Z"/><path id="f" class="cls-1" d="M19.33,28v-10.83h3.65l.55-4.24h-4.2v-2.7c0-1.22,.34-2.06,2.1-2.06h2.22v-3.78c-.39-.05-1.72-.17-3.26-.17-3.23,0-5.43,1.97-5.43,5.59v3.12h-3.64v4.24h3.64v10.83h4.38Z"/></svg>