<?xml version="1.0" encoding="UTF-8"?><svg id="Layer_1" xmlns="http://www.w3.org/2000/svg" width="28" height="28" viewBox="0 0 28 28"><defs><style>.cls-1{fill:#4775ae;}</style></defs><path class="cls-1" d="M25.93,0H2.07C.93,0,0,.9,0,2.02V25.98c0,1.12,.93,2.02,2.07,2.02H25.93c1.14,0,2.07-.91,2.07-2.02V2.02c0-1.11-.93-2.02-2.07-2.02ZM8.31,23.86H4.15V10.5h4.16v13.36Zm-2.08-15.19c-1.33,0-2.41-1.08-2.41-2.41s1.07-2.41,2.41-2.41,2.41,1.08,2.41,2.41-1.08,2.41-2.41,2.41Zm17.63,15.19h-4.15v-6.5c0-1.55-.03-3.54-2.16-3.54s-2.49,1.69-2.49,3.43v6.61h-4.15V10.5h3.98v1.83h.06c.55-1.05,1.91-2.16,3.93-2.16,4.2,0,4.98,2.77,4.98,6.37v7.33Z"/></svg>