<?xml version="1.0" encoding="UTF-8"?><svg id="Layer_1" xmlns="http://www.w3.org/2000/svg" width="28" height="28" viewBox="0 0 28 28"><defs><style>.cls-1{fill:#4775ae;}</style></defs><path class="cls-1" d="M18.92,4.72H9.08c-2.41,0-4.36,1.95-4.36,4.36v9.84c0,2.41,1.95,4.36,4.36,4.36h9.84c2.41,0,4.36-1.95,4.36-4.36V9.08c0-2.41-1.95-4.36-4.36-4.36Zm-4.87,14.92c-3.09,0-5.6-2.51-5.6-5.6s2.51-5.6,5.6-5.6,5.6,2.51,5.6,5.6-2.51,5.6-5.6,5.6Zm5.9-10.21c-.72,0-1.3-.58-1.3-1.3s.58-1.3,1.3-1.3,1.3,.58,1.3,1.3-.58,1.3-1.3,1.3Z"/><circle class="cls-1" cx="14.04" cy="14.04" r="3.63"/><path class="cls-1" d="M25.93,0H2.07C.93,0,0,.9,0,2.02V25.98c0,1.12,.93,2.02,2.07,2.02H25.93c1.14,0,2.07-.91,2.07-2.02V2.02c0-1.11-.93-2.02-2.07-2.02Zm-.73,19.05c0,3.4-2.75,6.15-6.15,6.15H8.95c-3.4,0-6.15-2.75-6.15-6.15V8.95c0-3.4,2.75-6.15,6.15-6.15h10.1c3.4,0,6.15,2.75,6.15,6.15v10.1Z"/></svg>